STARTFONT 2.1
COMMENT Exported by Fony v1.4.7
FONT FreeSansa-z
SIZE 11 96 96
FONTBOUNDINGBOX 13 10 0 1
STARTPROPERTIES 6
COPYRIGHT ""
RESOLUTION_X 96
RESOLUTION_Y 96
FONT_ASCENT 12
FONT_DESCENT -1
DEFAULT_CHAR 0
ENDPROPERTIES
CHARS 256
STARTCHAR 000
ENCODING 0
SWIDTH 720 0
DWIDTH 10 0
BBX 10 9 0 1
BITMAP
FFC0
DE40
D140
F140
C340
C640
C440
C440
C040
ENDCHAR
STARTCHAR 001
ENCODING 1
SWIDTH 720 0
DWIDTH 10 0
BBX 10 9 0 1
BITMAP
FFC0
DE40
D140
F140
C340
C640
C440
C440
C040
ENDCHAR
STARTCHAR 002
ENCODING 2
SWIDTH 720 0
DWIDTH 10 0
BBX 10 9 0 1
BITMAP
FFC0
DE40
D140
F140
C340
C640
C440
C440
C040
ENDCHAR
STARTCHAR 003
ENCODING 3
SWIDTH 720 0
DWIDTH 10 0
BBX 10 9 0 1
BITMAP
FFC0
DE40
D140
F140
C340
C640
C440
C440
C040
ENDCHAR
STARTCHAR 004
ENCODING 4
SWIDTH 720 0
DWIDTH 10 0
BBX 10 9 0 1
BITMAP
FFC0
DE40
D140
F140
C340
C640
C440
C440
C040
ENDCHAR
STARTCHAR 005
ENCODING 5
SWIDTH 720 0
DWIDTH 10 0
BBX 10 9 0 1
BITMAP
FFC0
DE40
D140
F140
C340
C640
C440
C440
C040
ENDCHAR
STARTCHAR 006
ENCODING 6
SWIDTH 720 0
DWIDTH 10 0
BBX 10 9 0 1
BITMAP
FFC0
DE40
D140
F140
C340
C640
C440
C440
C040
ENDCHAR
STARTCHAR 007
ENCODING 7
SWIDTH 720 0
DWIDTH 10 0
BBX 10 9 0 1
BITMAP
FFC0
DE40
D140
F140
C340
C640
C440
C440
C040
ENDCHAR
STARTCHAR 008
ENCODING 8
SWIDTH 720 0
DWIDTH 10 0
BBX 10 9 0 1
BITMAP
FFC0
DE40
D140
F140
C340
C640
C440
C440
C040
ENDCHAR
STARTCHAR 009
ENCODING 9
SWIDTH 720 0
DWIDTH 10 0
BBX 10 9 0 1
BITMAP
FFC0
DE40
D140
F140
C340
C640
C440
C440
C040
ENDCHAR
STARTCHAR 010
ENCODING 10
SWIDTH 720 0
DWIDTH 10 0
BBX 10 9 0 1
BITMAP
FFC0
DE40
D140
F140
C340
C640
C440
C440
C040
ENDCHAR
STARTCHAR 011
ENCODING 11
SWIDTH 720 0
DWIDTH 10 0
BBX 10 9 0 1
BITMAP
FFC0
DE40
D140
F140
C340
C640
C440
C440
C040
ENDCHAR
STARTCHAR 012
ENCODING 12
SWIDTH 720 0
DWIDTH 10 0
BBX 10 9 0 1
BITMAP
FFC0
DE40
D140
F140
C340
C640
C440
C440
C040
ENDCHAR
STARTCHAR 013
ENCODING 13
SWIDTH 720 0
DWIDTH 10 0
BBX 10 9 0 1
BITMAP
FFC0
DE40
D140
F140
C340
C640
C440
C440
C040
ENDCHAR
STARTCHAR 014
ENCODING 14
SWIDTH 720 0
DWIDTH 10 0
BBX 10 9 0 1
BITMAP
FFC0
DE40
D140
F140
C340
C640
C440
C440
C040
ENDCHAR
STARTCHAR 015
ENCODING 15
SWIDTH 720 0
DWIDTH 10 0
BBX 10 9 0 1
BITMAP
FFC0
DE40
D140
F140
C340
C640
C440
C440
C040
ENDCHAR
STARTCHAR 016
ENCODING 16
SWIDTH 720 0
DWIDTH 10 0
BBX 10 9 0 1
BITMAP
FFC0
DE40
D140
F140
C340
C640
C440
C440
C040
ENDCHAR
STARTCHAR 017
ENCODING 17
SWIDTH 720 0
DWIDTH 10 0
BBX 10 9 0 1
BITMAP
FFC0
DE40
D140
F140
C340
C640
C440
C440
C040
ENDCHAR
STARTCHAR 018
ENCODING 18
SWIDTH 720 0
DWIDTH 10 0
BBX 10 9 0 1
BITMAP
FFC0
DE40
D140
F140
C340
C640
C440
C440
C040
ENDCHAR
STARTCHAR 019
ENCODING 19
SWIDTH 720 0
DWIDTH 10 0
BBX 10 9 0 1
BITMAP
FFC0
DE40
D140
F140
C340
C640
C440
C440
C040
ENDCHAR
STARTCHAR 020
ENCODING 20
SWIDTH 720 0
DWIDTH 10 0
BBX 10 9 0 1
BITMAP
FFC0
DE40
D140
F140
C340
C640
C440
C440
C040
ENDCHAR
STARTCHAR 021
ENCODING 21
SWIDTH 720 0
DWIDTH 10 0
BBX 10 9 0 1
BITMAP
FFC0
DE40
D140
F140
C340
C640
C440
C440
C040
ENDCHAR
STARTCHAR 022
ENCODING 22
SWIDTH 720 0
DWIDTH 10 0
BBX 10 9 0 1
BITMAP
FFC0
DE40
D140
F140
C340
C640
C440
C440
C040
ENDCHAR
STARTCHAR 023
ENCODING 23
SWIDTH 720 0
DWIDTH 10 0
BBX 10 9 0 1
BITMAP
FFC0
DE40
D140
F140
C340
C640
C440
C440
C040
ENDCHAR
STARTCHAR 024
ENCODING 24
SWIDTH 720 0
DWIDTH 10 0
BBX 10 9 0 1
BITMAP
FFC0
DE40
D140
F140
C340
C640
C440
C440
C040
ENDCHAR
STARTCHAR 025
ENCODING 25
SWIDTH 720 0
DWIDTH 10 0
BBX 10 9 0 1
BITMAP
FFC0
DE40
D140
F140
C340
C640
C440
C440
C040
ENDCHAR
STARTCHAR 026
ENCODING 26
SWIDTH 720 0
DWIDTH 10 0
BBX 10 9 0 1
BITMAP
FFC0
DE40
D140
F140
C340
C640
C440
C440
C040
ENDCHAR
STARTCHAR 027
ENCODING 27
SWIDTH 720 0
DWIDTH 10 0
BBX 10 9 0 1
BITMAP
FFC0
DE40
D140
F140
C340
C640
C440
C440
C040
ENDCHAR
STARTCHAR 028
ENCODING 28
SWIDTH 720 0
DWIDTH 10 0
BBX 10 9 0 1
BITMAP
FFC0
DE40
D140
F140
C340
C640
C440
C440
C040
ENDCHAR
STARTCHAR 029
ENCODING 29
SWIDTH 720 0
DWIDTH 10 0
BBX 10 9 0 1
BITMAP
FFC0
DE40
D140
F140
C340
C640
C440
C440
C040
ENDCHAR
STARTCHAR 030
ENCODING 30
SWIDTH 720 0
DWIDTH 10 0
BBX 10 9 0 1
BITMAP
FFC0
DE40
D140
F140
C340
C640
C440
C440
C040
ENDCHAR
STARTCHAR 031
ENCODING 31
SWIDTH 720 0
DWIDTH 10 0
BBX 10 9 0 1
BITMAP
FFC0
DE40
D140
F140
C340
C640
C440
C440
C040
ENDCHAR
STARTCHAR 032
ENCODING 32
SWIDTH 216 0
DWIDTH 3 0
BBX 0 0 0 0
BITMAP
ENDCHAR
STARTCHAR 033
ENCODING 33
SWIDTH 288 0
DWIDTH 4 0
BBX 1 6 2 3
BITMAP
80
80
80
80
80
80
ENDCHAR
STARTCHAR 034
ENCODING 34
SWIDTH 288 0
DWIDTH 4 0
BBX 3 3 1 6
BITMAP
A0
A0
20
ENDCHAR
STARTCHAR 035
ENCODING 35
SWIDTH 504 0
DWIDTH 7 0
BBX 7 8 0 1
BITMAP
14
24
7E
24
28
28
FE
48
ENDCHAR
STARTCHAR 036
ENCODING 36
SWIDTH 504 0
DWIDTH 7 0
BBX 7 9 0 1
BITMAP
10
7C
54
50
70
3C
16
92
56
ENDCHAR
STARTCHAR 037
ENCODING 37
SWIDTH 864 0
DWIDTH 12 0
BBX 11 8 0 1
BITMAP
7100
4900
8A00
5200
2400
05E0
0920
0920
ENDCHAR
STARTCHAR 038
ENCODING 38
SWIDTH 648 0
DWIDTH 9 0
BBX 6 8 1 1
BITMAP
78
48
48
70
70
94
8C
8C
ENDCHAR
STARTCHAR 039
ENCODING 39
SWIDTH 216 0
DWIDTH 3 0
BBX 1 3 1 6
BITMAP
80
80
80
ENDCHAR
STARTCHAR 040
ENCODING 40
SWIDTH 288 0
DWIDTH 4 0
BBX 2 8 1 1
BITMAP
40
40
80
80
80
80
80
80
ENDCHAR
STARTCHAR 041
ENCODING 41
SWIDTH 288 0
DWIDTH 4 0
BBX 2 8 1 1
BITMAP
80
80
40
40
40
40
40
40
ENDCHAR
STARTCHAR 042
ENCODING 42
SWIDTH 360 0
DWIDTH 5 0
BBX 3 3 1 6
BITMAP
40
E0
A0
ENDCHAR
STARTCHAR 043
ENCODING 43
SWIDTH 576 0
DWIDTH 8 0
BBX 5 5 1 1
BITMAP
20
20
20
F8
20
ENDCHAR
STARTCHAR 044
ENCODING 44
SWIDTH 288 0
DWIDTH 4 0
BBX 0 0 0 0
BITMAP
ENDCHAR
STARTCHAR 045
ENCODING 45
SWIDTH 288 0
DWIDTH 4 0
BBX 3 1 1 3
BITMAP
E0
ENDCHAR
STARTCHAR 046
ENCODING 46
SWIDTH 216 0
DWIDTH 3 0
BBX 0 0 0 0
BITMAP
ENDCHAR
STARTCHAR 047
ENCODING 47
SWIDTH 288 0
DWIDTH 4 0
BBX 3 8 0 1
BITMAP
20
20
20
40
40
40
80
80
ENDCHAR
STARTCHAR 048
ENCODING 48
SWIDTH 504 0
DWIDTH 7 0
BBX 6 8 1 1
BITMAP
70
88
88
8C
8C
8C
88
88
ENDCHAR
STARTCHAR 049
ENCODING 49
SWIDTH 504 0
DWIDTH 7 0
BBX 3 8 2 1
BITMAP
20
E0
60
60
60
60
60
60
ENDCHAR
STARTCHAR 050
ENCODING 50
SWIDTH 504 0
DWIDTH 7 0
BBX 6 8 1 1
BITMAP
78
88
8C
08
18
60
C0
80
ENDCHAR
STARTCHAR 051
ENCODING 51
SWIDTH 504 0
DWIDTH 7 0
BBX 7 8 0 1
BITMAP
7C
44
44
04
1C
04
C6
44
ENDCHAR
STARTCHAR 052
ENCODING 52
SWIDTH 504 0
DWIDTH 7 0
BBX 7 8 0 1
BITMAP
08
18
18
28
48
C8
FE
08
ENDCHAR
STARTCHAR 053
ENCODING 53
SWIDTH 504 0
DWIDTH 7 0
BBX 6 8 1 1
BITMAP
F8
80
80
F8
88
0C
0C
88
ENDCHAR
STARTCHAR 054
ENCODING 54
SWIDTH 504 0
DWIDTH 7 0
BBX 6 8 1 1
BITMAP
78
88
80
B0
C8
8C
8C
88
ENDCHAR
STARTCHAR 055
ENCODING 55
SWIDTH 504 0
DWIDTH 7 0
BBX 6 8 1 1
BITMAP
FC
08
08
10
20
20
20
40
ENDCHAR
STARTCHAR 056
ENCODING 56
SWIDTH 504 0
DWIDTH 7 0
BBX 7 8 0 1
BITMAP
3C
44
44
6C
7C
44
C6
44
ENDCHAR
STARTCHAR 057
ENCODING 57
SWIDTH 504 0
DWIDTH 7 0
BBX 6 8 1 1
BITMAP
70
88
88
8C
8C
7C
08
88
ENDCHAR
STARTCHAR 058
ENCODING 58
SWIDTH 216 0
DWIDTH 3 0
BBX 1 2 1 5
BITMAP
80
80
ENDCHAR
STARTCHAR 059
ENCODING 59
SWIDTH 216 0
DWIDTH 3 0
BBX 1 1 1 5
BITMAP
80
ENDCHAR
STARTCHAR 060
ENCODING 60
SWIDTH 576 0
DWIDTH 8 0
BBX 6 5 1 1
BITMAP
0C
30
C0
C0
38
ENDCHAR
STARTCHAR 061
ENCODING 61
SWIDTH 576 0
DWIDTH 8 0
BBX 6 4 1 1
BITMAP
FC
00
00
FC
ENDCHAR
STARTCHAR 062
ENCODING 62
SWIDTH 576 0
DWIDTH 8 0
BBX 6 5 1 1
BITMAP
80
70
0C
0C
70
ENDCHAR
STARTCHAR 063
ENCODING 63
SWIDTH 504 0
DWIDTH 7 0
BBX 6 7 1 3
BITMAP
30
C8
8C
0C
08
10
20
ENDCHAR
STARTCHAR 064
ENCODING 64
SWIDTH 936 0
DWIDTH 13 0
BBX 12 9 0 1
BITMAP
0700
1CC0
3020
6350
4C90
4890
D890
4930
4FE0
ENDCHAR
STARTCHAR 065
ENCODING 65
SWIDTH 648 0
DWIDTH 9 0
BBX 7 8 1 1
BITMAP
30
28
28
4C
44
FC
86
82
ENDCHAR
STARTCHAR 066
ENCODING 66
SWIDTH 648 0
DWIDTH 9 0
BBX 7 8 1 1
BITMAP
FC
86
86
8C
FC
82
82
86
ENDCHAR
STARTCHAR 067
ENCODING 67
SWIDTH 648 0
DWIDTH 9 0
BBX 8 9 1 1
BITMAP
18
6E
C2
80
80
80
80
83
C2
ENDCHAR
STARTCHAR 068
ENCODING 68
SWIDTH 648 0
DWIDTH 9 0
BBX 8 8 1 1
BITMAP
FC
82
82
83
83
82
82
86
ENDCHAR
STARTCHAR 069
ENCODING 69
SWIDTH 576 0
DWIDTH 8 0
BBX 7 8 1 1
BITMAP
FE
80
80
80
FC
80
80
80
ENDCHAR
STARTCHAR 070
ENCODING 70
SWIDTH 576 0
DWIDTH 8 0
BBX 6 8 1 1
BITMAP
FC
80
80
80
FC
80
80
80
ENDCHAR
STARTCHAR 071
ENCODING 71
SWIDTH 720 0
DWIDTH 10 0
BBX 8 9 1 1
BITMAP
18
66
C3
80
80
8F
81
81
C3
ENDCHAR
STARTCHAR 072
ENCODING 72
SWIDTH 648 0
DWIDTH 9 0
BBX 7 8 1 1
BITMAP
82
82
82
82
FE
82
82
82
ENDCHAR
STARTCHAR 073
ENCODING 73
SWIDTH 288 0
DWIDTH 4 0
BBX 2 8 1 1
BITMAP
C0
C0
C0
C0
C0
C0
C0
C0
ENDCHAR
STARTCHAR 074
ENCODING 74
SWIDTH 504 0
DWIDTH 7 0
BBX 6 8 0 1
BITMAP
04
04
04
04
04
04
C4
4C
ENDCHAR
STARTCHAR 075
ENCODING 75
SWIDTH 648 0
DWIDTH 9 0
BBX 7 8 1 1
BITMAP
86
8C
98
B0
D0
88
8C
86
ENDCHAR
STARTCHAR 076
ENCODING 76
SWIDTH 504 0
DWIDTH 7 0
BBX 1 8 1 1
BITMAP
80
80
80
80
80
80
80
80
ENDCHAR
STARTCHAR 077
ENCODING 77
SWIDTH 792 0
DWIDTH 11 0
BBX 9 8 1 1
BITMAP
C180
C180
A280
A280
A280
9480
9480
9480
ENDCHAR
STARTCHAR 078
ENCODING 78
SWIDTH 648 0
DWIDTH 9 0
BBX 7 8 1 1
BITMAP
C2
E2
A2
92
9A
8A
8E
86
ENDCHAR
STARTCHAR 079
ENCODING 79
SWIDTH 720 0
DWIDTH 10 0
BBX 9 9 1 1
BITMAP
1800
6600
C100
8100
8180
8180
8180
8100
C300
ENDCHAR
STARTCHAR 080
ENCODING 80
SWIDTH 648 0
DWIDTH 9 0
BBX 7 8 1 1
BITMAP
FC
86
82
86
FC
80
80
80
ENDCHAR
STARTCHAR 081
ENCODING 81
SWIDTH 720 0
DWIDTH 10 0
BBX 9 9 1 1
BITMAP
1800
6600
C100
8100
8180
8180
8180
8100
C700
ENDCHAR
STARTCHAR 082
ENCODING 82
SWIDTH 648 0
DWIDTH 9 0
BBX 7 8 1 1
BITMAP
FE
82
82
82
FC
82
82
82
ENDCHAR
STARTCHAR 083
ENCODING 83
SWIDTH 648 0
DWIDTH 9 0
BBX 7 9 1 1
BITMAP
38
CC
86
80
E0
3C
06
82
82
ENDCHAR
STARTCHAR 084
ENCODING 84
SWIDTH 576 0
DWIDTH 8 0
BBX 8 8 0 1
BITMAP
FF
08
08
08
08
08
08
08
ENDCHAR
STARTCHAR 085
ENCODING 85
SWIDTH 648 0
DWIDTH 9 0
BBX 7 8 1 1
BITMAP
82
82
82
82
82
82
82
C2
ENDCHAR
STARTCHAR 086
ENCODING 86
SWIDTH 576 0
DWIDTH 8 0
BBX 7 8 1 1
BITMAP
82
86
C4
44
48
68
28
30
ENDCHAR
STARTCHAR 087
ENCODING 87
SWIDTH 864 0
DWIDTH 12 0
BBX 12 8 0 1
BITMAP
C630
4620
4720
4920
6920
2940
28C0
30C0
ENDCHAR
STARTCHAR 088
ENCODING 88
SWIDTH 648 0
DWIDTH 9 0
BBX 7 8 1 1
BITMAP
C6
4C
68
30
30
28
4C
C4
ENDCHAR
STARTCHAR 089
ENCODING 89
SWIDTH 648 0
DWIDTH 9 0
BBX 7 8 1 1
BITMAP
82
C4
4C
28
38
10
10
10
ENDCHAR
STARTCHAR 090
ENCODING 90
SWIDTH 576 0
DWIDTH 8 0
BBX 7 8 1 1
BITMAP
FE
0C
08
10
30
60
40
80
ENDCHAR
STARTCHAR 091
ENCODING 91
SWIDTH 288 0
DWIDTH 4 0
BBX 2 8 1 1
BITMAP
C0
80
80
80
80
80
80
80
ENDCHAR
STARTCHAR 092
ENCODING 92
SWIDTH 288 0
DWIDTH 4 0
BBX 3 8 0 1
BITMAP
80
80
40
40
40
40
20
20
ENDCHAR
STARTCHAR 093
ENCODING 93
SWIDTH 288 0
DWIDTH 4 0
BBX 2 8 1 1
BITMAP
C0
40
40
40
40
40
40
40
ENDCHAR
STARTCHAR 094
ENCODING 94
SWIDTH 432 0
DWIDTH 6 0
BBX 4 5 1 4
BITMAP
60
60
90
90
80
ENDCHAR
STARTCHAR 095
ENCODING 95
SWIDTH 504 0
DWIDTH 7 0
BBX 0 0 0 0
BITMAP
ENDCHAR
STARTCHAR 096
ENCODING 96
SWIDTH 216 0
DWIDTH 3 0
BBX 3 3 0 7
BITMAP
C0
40
20
ENDCHAR
STARTCHAR 097
ENCODING 97
SWIDTH 504 0
DWIDTH 7 0
BBX 6 6 0 1
BITMAP
78
44
04
3C
44
C4
ENDCHAR
STARTCHAR 098
ENCODING 98
SWIDTH 504 0
DWIDTH 7 0
BBX 6 8 1 1
BITMAP
80
80
F8
C8
84
84
84
8C
ENDCHAR
STARTCHAR 099
ENCODING 99
SWIDTH 504 0
DWIDTH 7 0
BBX 6 6 0 1
BITMAP
38
44
40
C0
C0
44
ENDCHAR
STARTCHAR 100
ENCODING 100
SWIDTH 504 0
DWIDTH 7 0
BBX 6 8 0 1
BITMAP
04
04
3C
44
C4
C4
C4
44
ENDCHAR
STARTCHAR 101
ENCODING 101
SWIDTH 504 0
DWIDTH 7 0
BBX 7 6 0 1
BITMAP
38
44
44
FE
C0
44
ENDCHAR
STARTCHAR 102
ENCODING 102
SWIDTH 288 0
DWIDTH 4 0
BBX 3 8 0 1
BITMAP
60
40
E0
40
40
40
40
40
ENDCHAR
STARTCHAR 103
ENCODING 103
SWIDTH 504 0
DWIDTH 7 0
BBX 6 6 0 1
BITMAP
3C
44
44
C4
C4
44
ENDCHAR
STARTCHAR 104
ENCODING 104
SWIDTH 504 0
DWIDTH 7 0
BBX 5 8 1 1
BITMAP
80
80
F8
88
88
88
88
88
ENDCHAR
STARTCHAR 105
ENCODING 105
SWIDTH 216 0
DWIDTH 3 0
BBX 1 8 1 1
BITMAP
80
00
80
80
80
80
80
80
ENDCHAR
STARTCHAR 106
ENCODING 106
SWIDTH 216 0
DWIDTH 3 0
BBX 1 8 1 1
BITMAP
80
00
80
80
80
80
80
80
ENDCHAR
STARTCHAR 107
ENCODING 107
SWIDTH 504 0
DWIDTH 7 0
BBX 5 8 1 1
BITMAP
80
80
98
B0
E0
E0
90
98
ENDCHAR
STARTCHAR 108
ENCODING 108
SWIDTH 216 0
DWIDTH 3 0
BBX 1 8 1 1
BITMAP
80
80
80
80
80
80
80
80
ENDCHAR
STARTCHAR 109
ENCODING 109
SWIDTH 792 0
DWIDTH 11 0
BBX 9 6 1 1
BITMAP
F700
8880
8880
8880
8880
8880
ENDCHAR
STARTCHAR 110
ENCODING 110
SWIDTH 504 0
DWIDTH 7 0
BBX 5 6 1 1
BITMAP
F8
88
88
88
88
88
ENDCHAR
STARTCHAR 111
ENCODING 111
SWIDTH 504 0
DWIDTH 7 0
BBX 7 6 0 1
BITMAP
38
44
C4
C6
C4
44
ENDCHAR
STARTCHAR 112
ENCODING 112
SWIDTH 504 0
DWIDTH 7 0
BBX 6 6 1 1
BITMAP
F8
C8
84
84
84
8C
ENDCHAR
STARTCHAR 113
ENCODING 113
SWIDTH 504 0
DWIDTH 7 0
BBX 6 6 0 1
BITMAP
38
44
44
C4
C4
44
ENDCHAR
STARTCHAR 114
ENCODING 114
SWIDTH 288 0
DWIDTH 4 0
BBX 3 6 1 1
BITMAP
E0
C0
80
80
80
80
ENDCHAR
STARTCHAR 115
ENCODING 115
SWIDTH 432 0
DWIDTH 6 0
BBX 6 6 0 1
BITMAP
78
4C
40
78
0C
C4
ENDCHAR
STARTCHAR 116
ENCODING 116
SWIDTH 288 0
DWIDTH 4 0
BBX 3 8 0 1
BITMAP
40
40
E0
40
40
40
40
40
ENDCHAR
STARTCHAR 117
ENCODING 117
SWIDTH 504 0
DWIDTH 7 0
BBX 5 6 1 1
BITMAP
88
88
88
88
88
88
ENDCHAR
STARTCHAR 118
ENCODING 118
SWIDTH 432 0
DWIDTH 6 0
BBX 6 6 0 1
BITMAP
84
44
48
48
28
30
ENDCHAR
STARTCHAR 119
ENCODING 119
SWIDTH 648 0
DWIDTH 9 0
BBX 9 6 0 1
BITMAP
8880
4C80
5580
5500
5500
3300
ENDCHAR
STARTCHAR 120
ENCODING 120
SWIDTH 432 0
DWIDTH 6 0
BBX 6 6 0 1
BITMAP
C4
48
30
10
30
48
ENDCHAR
STARTCHAR 121
ENCODING 121
SWIDTH 432 0
DWIDTH 6 0
BBX 6 6 0 1
BITMAP
84
4C
48
48
38
30
ENDCHAR
STARTCHAR 122
ENCODING 122
SWIDTH 432 0
DWIDTH 6 0
BBX 5 6 1 1
BITMAP
F8
10
30
60
40
80
ENDCHAR
STARTCHAR 123
ENCODING 123
SWIDTH 288 0
DWIDTH 4 0
BBX 2 8 1 1
BITMAP
40
40
40
40
80
80
80
40
ENDCHAR
STARTCHAR 124
ENCODING 124
SWIDTH 216 0
DWIDTH 3 0
BBX 1 8 1 1
BITMAP
80
80
80
80
80
80
80
80
ENDCHAR
STARTCHAR 125
ENCODING 125
SWIDTH 288 0
DWIDTH 4 0
BBX 3 8 1 1
BITMAP
C0
40
40
40
40
20
40
40
ENDCHAR
STARTCHAR 126
ENCODING 126
SWIDTH 504 0
DWIDTH 7 0
BBX 6 2 0 4
BITMAP
60
94
ENDCHAR
STARTCHAR 127
ENCODING 127
SWIDTH 720 0
DWIDTH 10 0
BBX 10 9 0 1
BITMAP
FFC0
DE40
D140
F140
C340
C640
C440
C440
C040
ENDCHAR
STARTCHAR 128
ENCODING 128
SWIDTH 720 0
DWIDTH 10 0
BBX 10 9 0 1
BITMAP
FFC0
DE40
D140
F140
C340
C640
C440
C440
C040
ENDCHAR
STARTCHAR 129
ENCODING 129
SWIDTH 720 0
DWIDTH 10 0
BBX 10 9 0 1
BITMAP
FFC0
DE40
D140
F140
C340
C640
C440
C440
C040
ENDCHAR
STARTCHAR 130
ENCODING 130
SWIDTH 720 0
DWIDTH 10 0
BBX 10 9 0 1
BITMAP
FFC0
DE40
D140
F140
C340
C640
C440
C440
C040
ENDCHAR
STARTCHAR 131
ENCODING 131
SWIDTH 720 0
DWIDTH 10 0
BBX 10 9 0 1
BITMAP
FFC0
DE40
D140
F140
C340
C640
C440
C440
C040
ENDCHAR
STARTCHAR 132
ENCODING 132
SWIDTH 720 0
DWIDTH 10 0
BBX 10 9 0 1
BITMAP
FFC0
DE40
D140
F140
C340
C640
C440
C440
C040
ENDCHAR
STARTCHAR 133
ENCODING 133
SWIDTH 720 0
DWIDTH 10 0
BBX 10 9 0 1
BITMAP
FFC0
DE40
D140
F140
C340
C640
C440
C440
C040
ENDCHAR
STARTCHAR 134
ENCODING 134
SWIDTH 720 0
DWIDTH 10 0
BBX 10 9 0 1
BITMAP
FFC0
DE40
D140
F140
C340
C640
C440
C440
C040
ENDCHAR
STARTCHAR 135
ENCODING 135
SWIDTH 720 0
DWIDTH 10 0
BBX 10 9 0 1
BITMAP
FFC0
DE40
D140
F140
C340
C640
C440
C440
C040
ENDCHAR
STARTCHAR 136
ENCODING 136
SWIDTH 720 0
DWIDTH 10 0
BBX 10 9 0 1
BITMAP
FFC0
DE40
D140
F140
C340
C640
C440
C440
C040
ENDCHAR
STARTCHAR 137
ENCODING 137
SWIDTH 720 0
DWIDTH 10 0
BBX 10 9 0 1
BITMAP
FFC0
DE40
D140
F140
C340
C640
C440
C440
C040
ENDCHAR
STARTCHAR 138
ENCODING 138
SWIDTH 720 0
DWIDTH 10 0
BBX 10 9 0 1
BITMAP
FFC0
DE40
D140
F140
C340
C640
C440
C440
C040
ENDCHAR
STARTCHAR 139
ENCODING 139
SWIDTH 720 0
DWIDTH 10 0
BBX 10 9 0 1
BITMAP
FFC0
DE40
D140
F140
C340
C640
C440
C440
C040
ENDCHAR
STARTCHAR 140
ENCODING 140
SWIDTH 720 0
DWIDTH 10 0
BBX 10 9 0 1
BITMAP
FFC0
DE40
D140
F140
C340
C640
C440
C440
C040
ENDCHAR
STARTCHAR 141
ENCODING 141
SWIDTH 720 0
DWIDTH 10 0
BBX 10 9 0 1
BITMAP
FFC0
DE40
D140
F140
C340
C640
C440
C440
C040
ENDCHAR
STARTCHAR 142
ENCODING 142
SWIDTH 720 0
DWIDTH 10 0
BBX 10 9 0 1
BITMAP
FFC0
DE40
D140
F140
C340
C640
C440
C440
C040
ENDCHAR
STARTCHAR 143
ENCODING 143
SWIDTH 720 0
DWIDTH 10 0
BBX 10 9 0 1
BITMAP
FFC0
DE40
D140
F140
C340
C640
C440
C440
C040
ENDCHAR
STARTCHAR 144
ENCODING 144
SWIDTH 720 0
DWIDTH 10 0
BBX 10 9 0 1
BITMAP
FFC0
DE40
D140
F140
C340
C640
C440
C440
C040
ENDCHAR
STARTCHAR 145
ENCODING 145
SWIDTH 720 0
DWIDTH 10 0
BBX 10 9 0 1
BITMAP
FFC0
DE40
D140
F140
C340
C640
C440
C440
C040
ENDCHAR
STARTCHAR 146
ENCODING 146
SWIDTH 720 0
DWIDTH 10 0
BBX 10 9 0 1
BITMAP
FFC0
DE40
D140
F140
C340
C640
C440
C440
C040
ENDCHAR
STARTCHAR 147
ENCODING 147
SWIDTH 720 0
DWIDTH 10 0
BBX 10 9 0 1
BITMAP
FFC0
DE40
D140
F140
C340
C640
C440
C440
C040
ENDCHAR
STARTCHAR 148
ENCODING 148
SWIDTH 720 0
DWIDTH 10 0
BBX 10 9 0 1
BITMAP
FFC0
DE40
D140
F140
C340
C640
C440
C440
C040
ENDCHAR
STARTCHAR 149
ENCODING 149
SWIDTH 720 0
DWIDTH 10 0
BBX 10 9 0 1
BITMAP
FFC0
DE40
D140
F140
C340
C640
C440
C440
C040
ENDCHAR
STARTCHAR 150
ENCODING 150
SWIDTH 720 0
DWIDTH 10 0
BBX 10 9 0 1
BITMAP
FFC0
DE40
D140
F140
C340
C640
C440
C440
C040
ENDCHAR
STARTCHAR 151
ENCODING 151
SWIDTH 720 0
DWIDTH 10 0
BBX 10 9 0 1
BITMAP
FFC0
DE40
D140
F140
C340
C640
C440
C440
C040
ENDCHAR
STARTCHAR 152
ENCODING 152
SWIDTH 720 0
DWIDTH 10 0
BBX 10 9 0 1
BITMAP
FFC0
DE40
D140
F140
C340
C640
C440
C440
C040
ENDCHAR
STARTCHAR 153
ENCODING 153
SWIDTH 720 0
DWIDTH 10 0
BBX 10 9 0 1
BITMAP
FFC0
DE40
D140
F140
C340
C640
C440
C440
C040
ENDCHAR
STARTCHAR 154
ENCODING 154
SWIDTH 720 0
DWIDTH 10 0
BBX 10 9 0 1
BITMAP
FFC0
DE40
D140
F140
C340
C640
C440
C440
C040
ENDCHAR
STARTCHAR 155
ENCODING 155
SWIDTH 720 0
DWIDTH 10 0
BBX 10 9 0 1
BITMAP
FFC0
DE40
D140
F140
C340
C640
C440
C440
C040
ENDCHAR
STARTCHAR 156
ENCODING 156
SWIDTH 720 0
DWIDTH 10 0
BBX 10 9 0 1
BITMAP
FFC0
DE40
D140
F140
C340
C640
C440
C440
C040
ENDCHAR
STARTCHAR 157
ENCODING 157
SWIDTH 720 0
DWIDTH 10 0
BBX 10 9 0 1
BITMAP
FFC0
DE40
D140
F140
C340
C640
C440
C440
C040
ENDCHAR
STARTCHAR 158
ENCODING 158
SWIDTH 720 0
DWIDTH 10 0
BBX 10 9 0 1
BITMAP
FFC0
DE40
D140
F140
C340
C640
C440
C440
C040
ENDCHAR
STARTCHAR 159
ENCODING 159
SWIDTH 720 0
DWIDTH 10 0
BBX 10 9 0 1
BITMAP
FFC0
DE40
D140
F140
C340
C640
C440
C440
C040
ENDCHAR
STARTCHAR 160
ENCODING 160
SWIDTH 288 0
DWIDTH 4 0
BBX 0 0 0 0
BITMAP
ENDCHAR
STARTCHAR 161
ENCODING 161
SWIDTH 288 0
DWIDTH 4 0
BBX 1 6 2 1
BITMAP
80
00
00
80
80
80
ENDCHAR
STARTCHAR 162
ENCODING 162
SWIDTH 504 0
DWIDTH 7 0
BBX 5 7 1 1
BITMAP
20
78
E8
A0
A0
A0
A8
ENDCHAR
STARTCHAR 163
ENCODING 163
SWIDTH 504 0
DWIDTH 7 0
BBX 7 8 0 1
BITMAP
7C
46
42
40
F8
20
20
40
ENDCHAR
STARTCHAR 164
ENCODING 164
SWIDTH 504 0
DWIDTH 7 0
BBX 5 5 1 2
BITMAP
F8
D8
88
C8
F8
ENDCHAR
STARTCHAR 165
ENCODING 165
SWIDTH 504 0
DWIDTH 7 0
BBX 6 8 1 1
BITMAP
84
88
58
50
F8
20
F8
20
ENDCHAR
STARTCHAR 166
ENCODING 166
SWIDTH 216 0
DWIDTH 3 0
BBX 1 8 1 1
BITMAP
80
80
80
80
80
00
00
80
ENDCHAR
STARTCHAR 167
ENCODING 167
SWIDTH 504 0
DWIDTH 7 0
BBX 6 8 1 1
BITMAP
78
C8
40
B0
98
8C
C4
28
ENDCHAR
STARTCHAR 168
ENCODING 168
SWIDTH 288 0
DWIDTH 4 0
BBX 4 1 0 8
BITMAP
D0
ENDCHAR
STARTCHAR 169
ENCODING 169
SWIDTH 720 0
DWIDTH 10 0
BBX 10 8 0 1
BITMAP
1F00
2C80
5280
9040
9040
9140
5E80
2080
ENDCHAR
STARTCHAR 170
ENCODING 170
SWIDTH 360 0
DWIDTH 5 0
BBX 4 6 0 4
BITMAP
60
10
70
90
70
70
ENDCHAR
STARTCHAR 171
ENCODING 171
SWIDTH 504 0
DWIDTH 7 0
BBX 5 5 1 1
BITMAP
08
D0
A0
D8
08
ENDCHAR
STARTCHAR 172
ENCODING 172
SWIDTH 576 0
DWIDTH 8 0
BBX 6 4 1 1
BITMAP
FC
04
04
04
ENDCHAR
STARTCHAR 173
ENCODING 173
SWIDTH 288 0
DWIDTH 4 0
BBX 3 1 1 3
BITMAP
E0
ENDCHAR
STARTCHAR 174
ENCODING 174
SWIDTH 720 0
DWIDTH 10 0
BBX 10 8 0 1
BITMAP
1F00
3C80
5280
9240
9E40
9240
5280
2080
ENDCHAR
STARTCHAR 175
ENCODING 175
SWIDTH 288 0
DWIDTH 4 0
BBX 4 1 0 8
BITMAP
F0
ENDCHAR
STARTCHAR 176
ENCODING 176
SWIDTH 576 0
DWIDTH 8 0
BBX 4 4 2 5
BITMAP
60
90
90
60
ENDCHAR
STARTCHAR 177
ENCODING 177
SWIDTH 576 0
DWIDTH 8 0
BBX 5 6 1 2
BITMAP
20
20
20
F8
20
20
ENDCHAR
STARTCHAR 178
ENCODING 178
SWIDTH 360 0
DWIDTH 5 0
BBX 4 6 0 5
BITMAP
20
D0
10
20
40
F0
ENDCHAR
STARTCHAR 179
ENCODING 179
SWIDTH 360 0
DWIDTH 5 0
BBX 4 6 0 5
BITMAP
60
90
10
30
90
70
ENDCHAR
STARTCHAR 180
ENCODING 180
SWIDTH 288 0
DWIDTH 4 0
BBX 2 2 2 8
BITMAP
C0
80
ENDCHAR
STARTCHAR 181
ENCODING 181
SWIDTH 504 0
DWIDTH 7 0
BBX 5 6 1 1
BITMAP
88
88
88
88
88
88
ENDCHAR
STARTCHAR 182
ENCODING 182
SWIDTH 504 0
DWIDTH 7 0
BBX 5 8 1 1
BITMAP
F8
E8
E8
E8
E8
28
28
28
ENDCHAR
STARTCHAR 183
ENCODING 183
SWIDTH 216 0
DWIDTH 3 0
BBX 1 1 1 3
BITMAP
80
ENDCHAR
STARTCHAR 184
ENCODING 184
SWIDTH 288 0
DWIDTH 4 0
BBX 0 0 0 0
BITMAP
ENDCHAR
STARTCHAR 185
ENCODING 185
SWIDTH 360 0
DWIDTH 5 0
BBX 2 6 1 5
BITMAP
40
C0
40
40
40
40
ENDCHAR
STARTCHAR 186
ENCODING 186
SWIDTH 360 0
DWIDTH 5 0
BBX 4 6 0 4
BITMAP
20
50
90
90
60
70
ENDCHAR
STARTCHAR 187
ENCODING 187
SWIDTH 504 0
DWIDTH 7 0
BBX 5 3 1 2
BITMAP
90
48
90
ENDCHAR
STARTCHAR 188
ENCODING 188
SWIDTH 792 0
DWIDTH 11 0
BBX 10 8 1 1
BITMAP
4100
C200
4400
4400
4880
0980
1280
23C0
ENDCHAR
STARTCHAR 189
ENCODING 189
SWIDTH 792 0
DWIDTH 11 0
BBX 10 8 1 1
BITMAP
4200
C200
4400
4800
4BC0
1040
1080
2300
ENDCHAR
STARTCHAR 190
ENCODING 190
SWIDTH 792 0
DWIDTH 11 0
BBX 11 9 0 1
BITMAP
2000
D080
1100
3200
9240
7440
04C0
0940
11E0
ENDCHAR
STARTCHAR 191
ENCODING 191
SWIDTH 504 0
DWIDTH 7 0
BBX 3 6 2 1
BITMAP
20
00
00
20
40
80
ENDCHAR
STARTCHAR 192
ENCODING 192
SWIDTH 648 0
DWIDTH 9 0
BBX 7 11 1 1
BITMAP
20
10
00
30
28
28
4C
44
FC
86
82
ENDCHAR
STARTCHAR 193
ENCODING 193
SWIDTH 648 0
DWIDTH 9 0
BBX 7 11 1 1
BITMAP
08
10
00
30
28
28
4C
44
FC
86
82
ENDCHAR
STARTCHAR 194
ENCODING 194
SWIDTH 648 0
DWIDTH 9 0
BBX 7 11 1 1
BITMAP
10
28
00
30
28
28
4C
44
FC
86
82
ENDCHAR
STARTCHAR 195
ENCODING 195
SWIDTH 648 0
DWIDTH 9 0
BBX 7 11 1 1
BITMAP
20
58
00
30
28
28
4C
44
FC
86
82
ENDCHAR
STARTCHAR 196
ENCODING 196
SWIDTH 648 0
DWIDTH 9 0
BBX 7 10 1 1
BITMAP
28
10
30
28
28
4C
44
FC
86
82
ENDCHAR
STARTCHAR 197
ENCODING 197
SWIDTH 648 0
DWIDTH 9 0
BBX 7 11 1 1
BITMAP
28
38
00
30
28
28
4C
44
FC
86
82
ENDCHAR
STARTCHAR 198
ENCODING 198
SWIDTH 936 0
DWIDTH 13 0
BBX 11 8 1 1
BITMAP
1FE0
2400
2400
6400
47E0
7C00
C400
8400
ENDCHAR
STARTCHAR 199
ENCODING 199
SWIDTH 648 0
DWIDTH 9 0
BBX 8 9 1 1
BITMAP
18
6E
C2
80
80
80
80
83
C2
ENDCHAR
STARTCHAR 200
ENCODING 200
SWIDTH 576 0
DWIDTH 8 0
BBX 7 11 1 1
BITMAP
20
10
00
FE
80
80
80
FC
80
80
80
ENDCHAR
STARTCHAR 201
ENCODING 201
SWIDTH 576 0
DWIDTH 8 0
BBX 7 11 1 1
BITMAP
18
30
00
FE
80
80
80
FC
80
80
80
ENDCHAR
STARTCHAR 202
ENCODING 202
SWIDTH 576 0
DWIDTH 8 0
BBX 7 11 1 1
BITMAP
10
28
00
FE
80
80
80
FC
80
80
80
ENDCHAR
STARTCHAR 203
ENCODING 203
SWIDTH 576 0
DWIDTH 8 0
BBX 7 11 1 1
BITMAP
28
28
00
FE
80
80
80
FC
80
80
80
ENDCHAR
STARTCHAR 204
ENCODING 204
SWIDTH 288 0
DWIDTH 4 0
BBX 3 11 0 1
BITMAP
C0
20
00
60
60
60
60
60
60
60
60
ENDCHAR
STARTCHAR 205
ENCODING 205
SWIDTH 288 0
DWIDTH 4 0
BBX 2 11 1 1
BITMAP
40
80
00
C0
C0
C0
C0
C0
C0
C0
C0
ENDCHAR
STARTCHAR 206
ENCODING 206
SWIDTH 288 0
DWIDTH 4 0
BBX 4 11 0 1
BITMAP
60
F0
00
60
60
60
60
60
60
60
60
ENDCHAR
STARTCHAR 207
ENCODING 207
SWIDTH 288 0
DWIDTH 4 0
BBX 4 10 0 1
BITMAP
B0
00
60
60
60
60
60
60
60
60
ENDCHAR
STARTCHAR 208
ENCODING 208
SWIDTH 648 0
DWIDTH 9 0
BBX 9 8 0 1
BITMAP
7E00
4100
4100
4180
F980
4180
4100
4300
ENDCHAR
STARTCHAR 209
ENCODING 209
SWIDTH 648 0
DWIDTH 9 0
BBX 7 10 1 1
BITMAP
38
00
C2
E2
A2
92
9A
8A
8E
86
ENDCHAR
STARTCHAR 210
ENCODING 210
SWIDTH 720 0
DWIDTH 10 0
BBX 9 11 1 1
BITMAP
3000
0800
1800
6600
C100
8100
8180
8180
8180
8100
C300
ENDCHAR
STARTCHAR 211
ENCODING 211
SWIDTH 720 0
DWIDTH 10 0
BBX 9 11 1 1
BITMAP
0C00
0800
1800
6600
C100
8100
8180
8180
8180
8100
C300
ENDCHAR
STARTCHAR 212
ENCODING 212
SWIDTH 720 0
DWIDTH 10 0
BBX 9 11 1 1
BITMAP
1800
1400
1800
6600
C100
8100
8180
8180
8180
8100
C300
ENDCHAR
STARTCHAR 213
ENCODING 213
SWIDTH 720 0
DWIDTH 10 0
BBX 9 10 1 1
BITMAP
3C00
1800
6600
C100
8100
8180
8180
8180
8100
C300
ENDCHAR
STARTCHAR 214
ENCODING 214
SWIDTH 720 0
DWIDTH 10 0
BBX 9 11 1 1
BITMAP
3400
3400
1800
6600
C100
8100
8180
8180
8180
8100
C300
ENDCHAR
STARTCHAR 215
ENCODING 215
SWIDTH 576 0
DWIDTH 8 0
BBX 4 4 2 1
BITMAP
90
60
60
90
ENDCHAR
STARTCHAR 216
ENCODING 216
SWIDTH 720 0
DWIDTH 10 0
BBX 9 9 1 1
BITMAP
1880
6700
C300
8500
8980
9180
A180
C100
C300
ENDCHAR
STARTCHAR 217
ENCODING 217
SWIDTH 648 0
DWIDTH 9 0
BBX 7 11 1 1
BITMAP
30
18
00
82
82
82
82
82
82
82
C2
ENDCHAR
STARTCHAR 218
ENCODING 218
SWIDTH 648 0
DWIDTH 9 0
BBX 7 11 1 1
BITMAP
08
10
00
82
82
82
82
82
82
82
C2
ENDCHAR
STARTCHAR 219
ENCODING 219
SWIDTH 648 0
DWIDTH 9 0
BBX 7 11 1 1
BITMAP
10
28
00
82
82
82
82
82
82
82
C2
ENDCHAR
STARTCHAR 220
ENCODING 220
SWIDTH 648 0
DWIDTH 9 0
BBX 7 10 1 1
BITMAP
2C
00
82
82
82
82
82
82
82
C2
ENDCHAR
STARTCHAR 221
ENCODING 221
SWIDTH 648 0
DWIDTH 9 0
BBX 7 11 1 1
BITMAP
08
10
00
82
C4
4C
28
38
10
10
10
ENDCHAR
STARTCHAR 222
ENCODING 222
SWIDTH 576 0
DWIDTH 8 0
BBX 7 8 1 1
BITMAP
80
FC
86
82
86
FC
F8
80
ENDCHAR
STARTCHAR 223
ENCODING 223
SWIDTH 576 0
DWIDTH 8 0
BBX 6 8 1 1
BITMAP
78
84
84
98
8C
84
84
84
ENDCHAR
STARTCHAR 224
ENCODING 224
SWIDTH 504 0
DWIDTH 7 0
BBX 6 9 0 1
BITMAP
20
10
00
78
44
04
3C
44
C4
ENDCHAR
STARTCHAR 225
ENCODING 225
SWIDTH 504 0
DWIDTH 7 0
BBX 6 9 0 1
BITMAP
08
10
00
78
44
04
3C
44
C4
ENDCHAR
STARTCHAR 226
ENCODING 226
SWIDTH 504 0
DWIDTH 7 0
BBX 6 8 0 1
BITMAP
38
20
78
44
04
3C
44
C4
ENDCHAR
STARTCHAR 227
ENCODING 227
SWIDTH 504 0
DWIDTH 7 0
BBX 6 8 0 1
BITMAP
38
00
78
44
04
3C
44
C4
ENDCHAR
STARTCHAR 228
ENCODING 228
SWIDTH 504 0
DWIDTH 7 0
BBX 6 8 0 1
BITMAP
28
00
78
44
04
3C
44
C4
ENDCHAR
STARTCHAR 229
ENCODING 229
SWIDTH 504 0
DWIDTH 7 0
BBX 6 9 0 1
BITMAP
38
28
10
78
44
04
3C
44
C4
ENDCHAR
STARTCHAR 230
ENCODING 230
SWIDTH 792 0
DWIDTH 11 0
BBX 11 6 0 1
BITMAP
7BC0
4660
0420
3FE0
4400
C460
ENDCHAR
STARTCHAR 231
ENCODING 231
SWIDTH 504 0
DWIDTH 7 0
BBX 6 6 0 1
BITMAP
38
44
40
C0
C0
44
ENDCHAR
STARTCHAR 232
ENCODING 232
SWIDTH 504 0
DWIDTH 7 0
BBX 7 9 0 1
BITMAP
20
10
00
38
44
44
FE
C0
44
ENDCHAR
STARTCHAR 233
ENCODING 233
SWIDTH 504 0
DWIDTH 7 0
BBX 7 9 0 1
BITMAP
08
10
00
38
44
44
FE
C0
44
ENDCHAR
STARTCHAR 234
ENCODING 234
SWIDTH 504 0
DWIDTH 7 0
BBX 7 8 0 1
BITMAP
38
20
38
44
44
FE
C0
44
ENDCHAR
STARTCHAR 235
ENCODING 235
SWIDTH 504 0
DWIDTH 7 0
BBX 7 8 0 1
BITMAP
28
00
38
44
44
FE
C0
44
ENDCHAR
STARTCHAR 236
ENCODING 236
SWIDTH 216 0
DWIDTH 3 0
BBX 2 9 0 1
BITMAP
C0
40
00
40
40
40
40
40
40
ENDCHAR
STARTCHAR 237
ENCODING 237
SWIDTH 216 0
DWIDTH 3 0
BBX 2 9 1 1
BITMAP
C0
80
00
80
80
80
80
80
80
ENDCHAR
STARTCHAR 238
ENCODING 238
SWIDTH 216 0
DWIDTH 3 0
BBX 3 8 0 1
BITMAP
E0
80
40
40
40
40
40
40
ENDCHAR
STARTCHAR 239
ENCODING 239
SWIDTH 216 0
DWIDTH 3 0
BBX 3 8 0 1
BITMAP
A0
00
40
40
40
40
40
40
ENDCHAR
STARTCHAR 240
ENCODING 240
SWIDTH 504 0
DWIDTH 7 0
BBX 7 9 0 1
BITMAP
40
30
58
3C
44
C4
C6
C4
44
ENDCHAR
STARTCHAR 241
ENCODING 241
SWIDTH 504 0
DWIDTH 7 0
BBX 5 8 1 1
BITMAP
70
00
F8
88
88
88
88
88
ENDCHAR
STARTCHAR 242
ENCODING 242
SWIDTH 504 0
DWIDTH 7 0
BBX 7 9 0 1
BITMAP
20
10
00
38
44
C4
C6
C4
44
ENDCHAR
STARTCHAR 243
ENCODING 243
SWIDTH 504 0
DWIDTH 7 0
BBX 7 9 0 1
BITMAP
08
10
00
38
44
C4
C6
C4
44
ENDCHAR
STARTCHAR 244
ENCODING 244
SWIDTH 504 0
DWIDTH 7 0
BBX 7 9 0 1
BITMAP
10
28
00
38
44
C4
C6
C4
44
ENDCHAR
STARTCHAR 245
ENCODING 245
SWIDTH 504 0
DWIDTH 7 0
BBX 7 8 0 1
BITMAP
38
00
38
44
C4
C6
C4
44
ENDCHAR
STARTCHAR 246
ENCODING 246
SWIDTH 504 0
DWIDTH 7 0
BBX 7 8 0 1
BITMAP
28
00
38
44
C4
C6
C4
44
ENDCHAR
STARTCHAR 247
ENCODING 247
SWIDTH 576 0
DWIDTH 8 0
BBX 6 3 1 3
BITMAP
20
00
FC
ENDCHAR
STARTCHAR 248
ENCODING 248
SWIDTH 504 0
DWIDTH 7 0
BBX 7 6 0 1
BITMAP
3A
44
CC
D6
E4
44
ENDCHAR
STARTCHAR 249
ENCODING 249
SWIDTH 504 0
DWIDTH 7 0
BBX 5 9 1 1
BITMAP
40
20
00
88
88
88
88
88
88
ENDCHAR
STARTCHAR 250
ENCODING 250
SWIDTH 504 0
DWIDTH 7 0
BBX 5 9 1 1
BITMAP
10
20
00
88
88
88
88
88
88
ENDCHAR
STARTCHAR 251
ENCODING 251
SWIDTH 504 0
DWIDTH 7 0
BBX 5 8 1 1
BITMAP
70
00
88
88
88
88
88
88
ENDCHAR
STARTCHAR 252
ENCODING 252
SWIDTH 504 0
DWIDTH 7 0
BBX 5 8 1 1
BITMAP
50
00
88
88
88
88
88
88
ENDCHAR
STARTCHAR 253
ENCODING 253
SWIDTH 432 0
DWIDTH 6 0
BBX 6 9 0 1
BITMAP
08
10
00
84
4C
48
48
38
30
ENDCHAR
STARTCHAR 254
ENCODING 254
SWIDTH 504 0
DWIDTH 7 0
BBX 6 8 1 1
BITMAP
80
80
F8
C8
84
84
84
8C
ENDCHAR
STARTCHAR 255
ENCODING 255
SWIDTH 432 0
DWIDTH 6 0
BBX 6 8 0 1
BITMAP
68
00
84
4C
48
48
38
30
ENDCHAR
ENDFONT
